<svg width="51" height="76" viewBox="0 0 51 76" fill="none" xmlns="http://www.w3.org/2000/svg">
<g clip-path="url(#clip0_2179_6)">
<path d="M0.350891 22.0116C0.350891 16.2666 2.62438 10.757 6.67122 6.69477C10.7181 2.6325 16.2067 0.350342 21.9298 0.350342H29.1228C34.8459 0.350342 40.3346 2.6325 44.3814 6.69477C48.4283 10.757 50.7018 16.2666 50.7018 22.0116V43.6728C50.7018 45.153 50.5579 46.5958 50.2702 48.0014C49.276 52.8948 46.6279 57.293 42.7742 60.4515C38.9205 63.61 34.0979 65.3348 29.1228 65.334V68.9442H47.1053V76.1646H3.94738V68.9442H21.9298V65.334C16.2067 65.334 10.7181 63.0518 6.67122 58.9896C2.62438 54.9273 0.350891 49.4177 0.350891 43.6728V22.0116ZM7.54387 38.2575V43.6728H18.3333V50.8932H9.468C10.7309 53.0889 12.5475 54.9122 14.735 56.1797C16.9226 57.4472 19.404 58.1142 21.9298 58.1136H29.1228C31.6486 58.1142 34.1301 57.4472 36.3176 56.1797C38.5052 54.9122 40.3218 53.0889 41.5847 50.8932H32.7193V43.6728H43.5088V38.2575H32.7193V31.0371H43.5088V25.6218H32.7193V18.4014H43.0556C42.2581 15.3009 40.4567 12.5545 37.9346 10.594C35.4125 8.63342 32.3128 7.56993 29.1228 7.57075H21.9298C18.7399 7.56993 15.6402 8.63342 13.1181 10.594C10.5959 12.5545 8.79451 15.3009 7.99703 18.4014H18.3333V25.6218H7.54387V31.0371H18.3333V38.2575H7.54387Z" fill="black"/>
</g>
<defs>
<clipPath id="clip0_2179_6">
<rect width="51" height="76" fill="white"/>
</clipPath>
</defs>
</svg>
