<svg width="73" height="66" viewBox="0 0 73 66" fill="none" xmlns="http://www.w3.org/2000/svg">
<g clip-path="url(#clip0_2128_4)">
<path d="M33.0155 42.2566L48.2373 32.5976C49.3377 31.8686 49.8879 30.8359 49.8879 29.4994C49.8879 28.163 49.3377 27.1302 48.2373 26.4013L33.0155 16.7423C31.7928 15.9525 30.5396 15.8918 29.2558 16.56C27.9721 17.2283 27.3302 18.2914 27.3302 19.7493V39.2495C27.3302 40.7075 27.9721 41.7706 29.2558 42.4388C30.5396 43.1071 31.7928 43.0463 33.0155 42.2566ZM7.15659 58.6586C5.13923 58.6586 3.41286 57.9455 1.97748 56.5191C0.542098 55.0927 -0.176815 53.376 -0.17926 51.3688V7.63001C-0.17926 5.62532 0.539653 3.90978 1.97748 2.48341C3.41531 1.05704 5.14167 0.34264 7.15659 0.34021H65.8434C67.8607 0.34021 69.5883 1.05461 71.0262 2.48341C72.464 3.91221 73.1817 5.62775 73.1792 7.63001V51.3688C73.1792 53.3735 72.4615 55.0903 71.0262 56.5191C69.5908 57.9479 67.8632 58.6611 65.8434 58.6586H51.1717V62.3035C51.1717 63.3363 50.8196 64.2025 50.1153 64.9024C49.4111 65.6022 48.5406 65.9509 47.5038 65.9484H25.4962C24.457 65.9484 23.5864 65.5985 22.8846 64.8987C22.1829 64.1989 21.8307 63.3338 21.8283 62.3035V58.6586H7.15659ZM7.15659 51.3688H65.8434V7.63001H7.15659V51.3688Z" fill="black"/>
</g>
<defs>
<clipPath id="clip0_2128_4">
<rect width="73" height="66" fill="white"/>
</clipPath>
</defs>
</svg>
