<svg width="24" height="24" viewBox="0 0 24 24" fill="none" xmlns="http://www.w3.org/2000/svg">
<path opacity="0.15" d="M1.04004 22.0849C1.04004 22.3276 2.19475 22.5603 4.25015 22.7319C6.30555 22.9035 9.09327 22.9999 12 22.9999C14.9068 22.9999 17.6945 22.9035 19.7499 22.7319C21.8053 22.5603 22.96 22.3276 22.96 22.0849C22.96 21.8422 21.8053 21.6095 19.7499 21.4379C17.6945 21.2663 14.9068 21.1699 12 21.1699C9.09327 21.1699 6.30555 21.2663 4.25015 21.4379C2.19475 21.6095 1.04004 21.8422 1.04004 22.0849Z" fill="#45413C"/>
<path d="M22.96 16.84C22.9579 16.2995 22.7827 15.7738 22.46 15.34C22.4671 15.2318 22.4671 15.1233 22.46 15.015C22.4616 14.6313 22.3765 14.2521 22.2112 13.9059C22.0458 13.5596 21.8044 13.2551 21.505 13.015V12.905C21.5054 12.4396 21.3784 11.983 21.1378 11.5846C20.8972 11.1862 20.5521 10.8613 20.14 10.645C20.1451 10.5868 20.1451 10.5283 20.14 10.47C20.1672 10.2928 20.1407 10.1114 20.0641 9.94931C19.9875 9.78717 19.8642 9.65162 19.71 9.56004C19.7713 9.37858 19.8116 9.19068 19.83 9.00004C19.834 8.52417 19.6924 8.05846 19.4243 7.66527C19.1563 7.27208 18.7744 6.9702 18.33 6.80004C18.3227 6.58176 18.2416 6.37242 18.0999 6.20621C17.9583 6.04001 17.7644 5.92678 17.55 5.88504C17.5065 5.37727 17.3089 4.89493 16.9836 4.50262C16.6584 4.11032 16.2209 3.82679 15.73 3.69004C15.6489 3.42857 15.4852 3.20048 15.2634 3.04C15.0416 2.87952 14.7737 2.79532 14.5 2.80004C14.246 2.40395 13.8971 2.07758 13.485 1.85055C13.0729 1.62353 12.6105 1.50304 12.14 1.50004C11.5894 1.49715 11.0527 1.67256 10.61 2.00004C10.4455 1.96662 10.2779 1.94987 10.11 1.95004C9.61211 1.95267 9.12779 2.11272 8.72635 2.40729C8.32491 2.70186 8.02692 3.11585 7.87502 3.59004C7.60392 3.61811 7.3525 3.7445 7.16824 3.94533C6.98399 4.14616 6.87968 4.40753 6.87502 4.68004C6.87587 4.76229 6.88424 4.8443 6.90002 4.92504C6.04002 5.33504 4.98502 6.21004 4.98502 7.23004C4.98595 7.41248 5.01808 7.59342 5.08002 7.76504C4.26002 8.17004 3.99502 8.85004 3.97002 9.82004C3.73523 9.86051 3.5226 9.98349 3.37043 10.1668C3.21827 10.3502 3.13656 10.5818 3.14002 10.82C3.14003 10.9059 3.1501 10.9915 3.17002 11.075C2.83373 11.3457 2.56736 11.6931 2.39333 12.0881C2.21931 12.4832 2.14273 12.9142 2.17002 13.345C1.63037 13.706 1.24837 14.2589 1.10164 14.8913C0.954904 15.5237 1.05444 16.1883 1.38002 16.75C1.19412 17.0731 1.08116 17.4329 1.04904 17.8042C1.01693 18.1756 1.06646 18.5494 1.19414 18.8996C1.32182 19.2498 1.52457 19.5678 1.78816 19.8313C2.05176 20.0948 2.36981 20.2975 2.72002 20.425C2.8113 20.667 2.974 20.8755 3.18654 21.0229C3.39908 21.1702 3.6514 21.2494 3.91002 21.25C3.97828 21.2547 4.04677 21.2547 4.11502 21.25C4.58556 21.7088 5.21784 21.9639 5.87502 21.96C6.36217 22.0208 6.85676 21.9536 7.31002 21.765H16.69C17.362 22.0544 18.0998 22.1563 18.825 22.06C19.3697 21.976 19.8778 21.7342 20.2866 21.3646C20.6954 20.9949 20.9868 20.5136 21.125 19.98C21.419 19.9283 21.6855 19.7747 21.8775 19.5461C22.0695 19.3175 22.1748 19.0286 22.175 18.73V18.7C22.4256 18.4598 22.6245 18.1709 22.7594 17.851C22.8944 17.5312 22.9627 17.1872 22.96 16.84Z" fill="white"/>
<path d="M22.175 16.785V16.815C22.1749 17.1136 22.0695 17.4025 21.8775 17.6311C21.6855 17.8597 21.4191 18.0133 21.125 18.065C20.9874 18.5989 20.6961 19.0805 20.2873 19.4503C19.8784 19.8201 19.37 20.0616 18.825 20.145C17.95 20.31 17.01 19.8 16.69 19.645H7.31004C6.87374 19.8975 6.37914 20.032 5.87504 20.035C5.21786 20.0389 4.58558 19.7838 4.11504 19.325C4.04689 19.3321 3.97819 19.3321 3.91004 19.325C3.65067 19.3248 3.39759 19.2451 3.18485 19.0967C2.97211 18.9483 2.8099 18.7383 2.72004 18.495C2.38223 18.3722 2.07407 18.1796 1.81563 17.9298C1.55719 17.6799 1.35426 17.3785 1.22004 17.045C1.09708 17.3466 1.03424 17.6693 1.03504 17.995C1.03514 18.5191 1.19638 19.0304 1.4969 19.4597C1.79742 19.889 2.22269 20.2156 2.71504 20.395C2.80169 20.6434 2.96305 20.8589 3.17699 21.012C3.39093 21.1651 3.64699 21.2482 3.91004 21.25C3.9783 21.2547 4.04679 21.2547 4.11504 21.25C4.58558 21.7088 5.21786 21.9639 5.87504 21.96C6.36219 22.0208 6.85678 21.9536 7.31004 21.765H16.69C17.362 22.0544 18.0998 22.1563 18.825 22.06C19.3697 21.976 19.8778 21.7342 20.2866 21.3646C20.6954 20.9949 20.9869 20.5136 21.125 19.98C21.4191 19.9283 21.6855 19.7747 21.8775 19.5461C22.0695 19.3175 22.1749 19.0286 22.175 18.73V18.7C22.4238 18.4615 22.6216 18.175 22.7565 17.8579C22.8914 17.5408 22.9607 17.1996 22.96 16.855C22.9608 16.5293 22.898 16.2066 22.775 15.905C22.6392 16.2373 22.4348 16.5372 22.175 16.785Z" fill="#F0F0F0"/>
<path d="M22.96 16.84C22.9579 16.2995 22.7827 15.7738 22.46 15.34C22.4671 15.2318 22.4671 15.1233 22.46 15.015C22.4616 14.6313 22.3765 14.2521 22.2112 13.9059C22.0458 13.5596 21.8044 13.2551 21.505 13.015V12.905C21.5054 12.4396 21.3784 11.983 21.1378 11.5846C20.8972 11.1862 20.5521 10.8613 20.14 10.645C20.1451 10.5868 20.1451 10.5283 20.14 10.47C20.1672 10.2928 20.1407 10.1114 20.0641 9.94931C19.9875 9.78717 19.8642 9.65162 19.71 9.56004C19.7713 9.37858 19.8116 9.19068 19.83 9.00004C19.834 8.52417 19.6924 8.05846 19.4243 7.66527C19.1563 7.27208 18.7744 6.9702 18.33 6.80004C18.3227 6.58176 18.2416 6.37242 18.0999 6.20621C17.9583 6.04001 17.7644 5.92678 17.55 5.88504C17.5065 5.37727 17.3089 4.89493 16.9836 4.50262C16.6584 4.11032 16.2209 3.82679 15.73 3.69004C15.6489 3.42857 15.4852 3.20048 15.2634 3.04C15.0416 2.87952 14.7737 2.79532 14.5 2.80004C14.246 2.40395 13.8971 2.07758 13.485 1.85055C13.0729 1.62353 12.6105 1.50304 12.14 1.50004C11.5894 1.49715 11.0527 1.67256 10.61 2.00004C10.4455 1.96662 10.2779 1.94987 10.11 1.95004C9.61211 1.95267 9.12779 2.11272 8.72635 2.40729C8.32491 2.70186 8.02692 3.11585 7.87502 3.59004C7.60392 3.61811 7.3525 3.7445 7.16824 3.94533C6.98399 4.14616 6.87968 4.40753 6.87502 4.68004C6.87587 4.76229 6.88424 4.8443 6.90002 4.92504C6.04002 5.33504 4.98502 6.21004 4.98502 7.23004C4.98595 7.41248 5.01808 7.59342 5.08002 7.76504C4.26002 8.17004 3.99502 8.85004 3.97002 9.82004C3.73523 9.86051 3.5226 9.98349 3.37043 10.1668C3.21827 10.3502 3.13656 10.5818 3.14002 10.82C3.14003 10.9059 3.1501 10.9915 3.17002 11.075C2.83373 11.3457 2.56736 11.6931 2.39333 12.0881C2.21931 12.4832 2.14273 12.9142 2.17002 13.345C1.63037 13.706 1.24837 14.2589 1.10164 14.8913C0.954904 15.5237 1.05444 16.1883 1.38002 16.75C1.19412 17.0731 1.08116 17.4329 1.04904 17.8042C1.01693 18.1756 1.06646 18.5494 1.19414 18.8996C1.32182 19.2498 1.52457 19.5678 1.78816 19.8313C2.05176 20.0948 2.36981 20.2975 2.72002 20.425C2.8113 20.667 2.974 20.8755 3.18654 21.0229C3.39908 21.1702 3.6514 21.2494 3.91002 21.25C3.97828 21.2547 4.04677 21.2547 4.11502 21.25C4.58556 21.7088 5.21784 21.9639 5.87502 21.96C6.36217 22.0208 6.85676 21.9536 7.31002 21.765H16.69C17.362 22.0544 18.0998 22.1563 18.825 22.06C19.3697 21.976 19.8778 21.7342 20.2866 21.3646C20.6954 20.9949 20.9868 20.5136 21.125 19.98C21.419 19.9283 21.6855 19.7747 21.8775 19.5461C22.0695 19.3175 22.1748 19.0286 22.175 18.73V18.7C22.4256 18.4598 22.6245 18.1709 22.7594 17.851C22.8944 17.5312 22.9627 17.1872 22.96 16.84Z" stroke="#45413C" stroke-linejoin="round"/>
<path d="M7.85506 13.085H16.1451C16.2909 13.085 16.4308 13.1429 16.534 13.2461C16.6371 13.3492 16.6951 13.4891 16.6951 13.635V21.75H7.31006V13.635C7.31005 13.49 7.36731 13.3508 7.46938 13.2478C7.57144 13.1448 7.71006 13.0863 7.85506 13.085Z" fill="#656769"/>
<path d="M7.31006 19.655H16.6951V21.75H7.31006V19.655Z" fill="#525252"/>
<path d="M7.85506 13.085H16.1451C16.2909 13.085 16.4308 13.1429 16.534 13.2461C16.6371 13.3492 16.6951 13.4891 16.6951 13.635V21.75H7.31006V13.635C7.31005 13.49 7.36731 13.3508 7.46938 13.2478C7.57144 13.1448 7.71006 13.0863 7.85506 13.085Z" stroke="#45413C" stroke-linejoin="round"/>
<path d="M11.285 4.84009C11.0996 4.87393 10.9275 4.95948 10.7886 5.08687C10.6497 5.21426 10.5497 5.3783 10.5 5.56009C10.3656 5.54178 10.2293 5.54178 10.095 5.56009C9.80089 5.60495 9.52783 5.73947 9.31306 5.94529C9.09829 6.15111 8.95228 6.4182 8.89495 6.71009C8.80208 6.69696 8.70782 6.69696 8.61495 6.71009C8.35698 6.75314 8.12615 6.89555 7.97193 7.10679C7.81771 7.31802 7.75238 7.58126 7.78995 7.84009M18 10.3901C17.9993 10.285 17.978 10.1811 17.9371 10.0843C17.8963 9.98751 17.8369 9.89969 17.7621 9.82586C17.6874 9.75204 17.5988 9.69366 17.5015 9.65407C17.4042 9.61447 17.3 9.59443 17.195 9.59509C17.1936 9.24189 17.0524 8.90361 16.8022 8.65433C16.552 8.40505 16.2132 8.26509 15.86 8.26509C15.6265 8.26724 15.3976 8.32922 15.195 8.44509C15.1381 8.30904 15.0411 8.19356 14.9169 8.11405C14.7928 8.03455 14.6473 7.99479 14.5 8.00009M5.15995 12.4601C4.90883 12.6463 4.71677 12.9011 4.6068 13.1937C4.49683 13.4864 4.47362 13.8046 4.53995 14.1101C4.42617 14.1391 4.31916 14.19 4.22495 14.2601C4.06157 14.3893 3.94929 14.5722 3.90809 14.7764C3.86689 14.9805 3.89944 15.1927 3.99995 15.3751C3.88587 15.4582 3.78943 15.5631 3.71625 15.6838C3.64307 15.8044 3.59461 15.9385 3.57367 16.078C3.55274 16.2176 3.55975 16.3599 3.5943 16.4968C3.62886 16.6336 3.69026 16.7622 3.77495 16.8751M18.955 18.5001C19.2516 18.5003 19.5424 18.4178 19.7947 18.2619C20.0471 18.1059 20.2509 17.8827 20.3834 17.6173C20.5158 17.3519 20.5716 17.0548 20.5445 16.7594C20.5174 16.464 20.4085 16.182 20.23 15.9451C20.3413 15.802 20.4028 15.6264 20.405 15.4451C20.4041 15.3215 20.3762 15.1995 20.3231 15.0879C20.27 14.9762 20.1931 14.8776 20.0977 14.7989C20.0024 14.7203 19.8909 14.6635 19.7712 14.6326C19.6515 14.6017 19.5265 14.5974 19.405 14.6201C19.5047 14.4669 19.5605 14.2893 19.5663 14.1066C19.5722 13.924 19.5279 13.7432 19.4382 13.5839C19.3485 13.4247 19.2169 13.293 19.0577 13.2033C18.8984 13.1136 18.7176 13.0693 18.535 13.0751" stroke="#4F4B45" stroke-linecap="round" stroke-linejoin="round"/>
</svg>
